<svg width="327" height="200" viewBox="0 0 327 200" fill="none" xmlns="http://www.w3.org/2000/svg">
<path d="M166.362 200C111.212 200 300 183.566 300 100.35C300 17.1329 111.212 -1.79581e-06 166.362 6.14877e-07C221.512 3.02556e-06 326.835 44.7715 326.835 100C326.835 155.228 221.512 200 166.362 200Z" fill="#FC452E"/>
<path d="M158.122 183.916C111.941 183.916 270.5 169.891 270.5 100.35C270.5 30.8084 111.941 16.7832 158.122 16.7832C204.303 16.7832 292.498 54.1972 292.498 100.35C292.498 146.502 204.303 183.916 158.122 183.916Z" fill="#FC452E"/>
<path d="M149.11 171.329C109.946 171.329 241.668 159.416 241.668 100.35C241.668 41.2832 109.946 29.3706 149.11 29.3706C188.273 29.3706 263.066 61.149 263.066 100.35C263.066 139.55 188.273 171.329 149.11 171.329Z" fill="#FC452E"/>
<path d="M8.19588 63.701C8.19588 65.299 8.78866 66.4588 9.97423 67.1804C11.1598 68.0567 13.6856 68.9588 17.5515 69.8866C21.6237 70.866 24.5876 72.2062 26.4433 73.9072C28.3505 75.6082 29.3041 78.0567 29.3041 81.2526C29.3041 84.6031 28.0412 87.3093 25.5155 89.3711C23.0412 91.433 19.7938 92.4639 15.7732 92.4639C9.94845 92.4639 4.69072 90.4021 0 86.2783L4.02062 81.4845C7.93814 84.835 11.9072 86.5103 15.9278 86.5103C17.9381 86.5103 19.5619 86.0722 20.799 85.1959C22.0361 84.268 22.6546 83.0825 22.6546 81.6392C22.6546 80.1959 22.0876 79.0618 20.9536 78.2371C19.8711 77.4124 17.9124 76.6649 15.0773 75.9948C10.1804 74.8608 6.77835 73.5206 4.87113 71.9742C2.65464 70.2732 1.54639 67.6701 1.54639 64.1649C1.54639 60.7629 2.78351 58.1082 5.25773 56.201C7.73196 54.2423 10.9021 53.2629 14.768 53.2629C19.9742 53.2629 24.433 54.7835 28.1443 57.8247L24.7423 62.6185C23.6082 61.5876 22.0876 60.7629 20.1804 60.1443C18.2732 59.4742 16.3918 59.1392 14.5361 59.1392C12.6289 59.1392 11.0825 59.5515 9.89691 60.3763C8.76289 61.1495 8.19588 62.2577 8.19588 63.701Z" fill="white"/>
<path d="M42.4041 92H36.3731V51.8711H42.4041V68.4175C43.2803 66.6649 44.5948 65.299 46.3474 64.3196C48.0999 63.2887 49.9814 62.7732 51.9917 62.7732C55.3422 62.7732 57.9968 63.7783 59.9556 65.7887C61.9144 67.799 62.8937 70.6598 62.8937 74.3711V92H56.7855V76.2268C56.7855 70.9175 54.5948 68.2629 50.2133 68.2629C47.9968 68.2629 46.1412 68.9845 44.6463 70.4278C43.1515 71.8196 42.4041 73.8041 42.4041 76.3814V92Z" fill="white"/>
<path d="M91.4127 63.2371H97.521V92H91.4127V86.7423C90.4334 88.4948 89.0674 89.8866 87.3148 90.9175C85.6138 91.9484 83.7839 92.4639 81.8251 92.4639C78.5261 92.4639 75.8973 91.4588 73.9385 89.4484C71.9798 87.4381 71.0004 84.5773 71.0004 80.866V63.2371H77.0313V79.0103C77.0313 84.3196 79.222 86.9742 83.6035 86.9742C85.82 86.9742 87.6756 86.2526 89.1705 84.8093C90.6653 83.366 91.4127 81.3557 91.4127 78.7783V63.2371Z" fill="white"/>
<path d="M113.669 68.1082V82.7216C113.669 84.1134 114.03 85.2216 114.751 86.0464C115.525 86.8196 116.555 87.2062 117.844 87.2062C119.03 87.2062 120.267 86.5618 121.555 85.2732L124.03 89.6031C121.865 91.5103 119.519 92.4639 116.994 92.4639C114.365 92.4639 112.148 91.5618 110.344 89.7577C108.54 87.9021 107.638 85.5051 107.638 82.567V68.1082H104.004V63.2371H107.638V54.1907H113.669V63.2371H121.246V68.1082H113.669Z" fill="white"/>
<path d="M136.301 68.1082V82.7216C136.301 84.1134 136.662 85.2216 137.383 86.0464C138.156 86.8196 139.187 87.2062 140.476 87.2062C141.662 87.2062 142.899 86.5618 144.187 85.2732L146.662 89.6031C144.497 91.5103 142.151 92.4639 139.625 92.4639C136.997 92.4639 134.78 91.5618 132.976 89.7577C131.172 87.9021 130.27 85.5051 130.27 82.567V68.1082H126.636V63.2371H130.27V54.1907H136.301V63.2371H143.878V68.1082H136.301Z" fill="white"/>
<path d="M157.541 92H151.51V51.8711H157.541V92Z" fill="white"/>
<path d="M193.131 80.2474H170.553C170.708 82.3093 171.662 83.9845 173.414 85.2732C175.167 86.5618 177.203 87.2062 179.522 87.2062C183.182 87.2062 185.914 86.0722 187.718 83.8041L191.198 87.5928C188.105 90.8402 184.058 92.4639 179.058 92.4639C174.935 92.4639 171.481 91.0979 168.698 88.366C165.914 85.634 164.522 82.0258 164.522 77.5412C164.522 73.1598 165.94 69.6031 168.775 66.8711C171.61 64.1392 175.038 62.7732 179.058 62.7732C183.079 62.7732 186.43 63.9845 189.11 66.4072C191.79 68.8299 193.131 72.0515 193.131 76.0722V80.2474ZM187.1 75.4536C187.1 73.134 186.352 71.3041 184.857 69.9639C183.414 68.6237 181.533 67.9536 179.213 67.9536C176.893 67.9536 174.857 68.6495 173.105 70.0412C171.404 71.433 170.553 73.2371 170.553 75.4536H187.1Z" fill="white"/>
<path d="M112.505 136.418L108.716 145H101.912L118.613 107.191H125.417L142.041 145H135.237L131.448 136.418H112.505ZM128.897 130.464L122.015 114.923L115.134 130.464H128.897Z" fill="white"/>
<path d="M152.487 132.629V145H146.456V116.237H152.487V121.959C153.466 120.155 154.781 118.686 156.43 117.552C158.131 116.418 159.91 115.825 161.765 115.773L161.843 121.881H161.533C158.595 121.881 156.353 122.835 154.807 124.742C153.26 126.649 152.487 129.278 152.487 132.629Z" fill="white"/>
<path d="M165.983 130.619C165.983 126.289 167.478 122.732 170.468 119.948C173.457 117.165 177.143 115.773 181.524 115.773C185.854 115.773 189.514 117.268 192.504 120.258L188.947 124.665C186.473 122.5 183.973 121.418 181.447 121.418C178.87 121.418 176.653 122.268 174.798 123.969C172.993 125.619 172.091 127.758 172.091 130.387C172.091 133.067 172.993 135.335 174.798 137.191C176.653 138.995 178.921 139.897 181.602 139.897C184.282 139.897 186.834 138.686 189.256 136.263L192.813 140.129C189.153 143.686 185.107 145.464 180.674 145.464C176.55 145.464 173.071 144.098 170.236 141.366C167.401 138.582 165.983 135 165.983 130.619Z" fill="white"/>
</svg>
